<?xml version="1.0" encoding="UTF-8"?>
<svg width="700pt" height="700pt" version="1.1" viewBox="0 0 700 700" xmlns="http://www.w3.org/2000/svg" xmlns:xlink="http://www.w3.org/1999/xlink">
 <defs>
  <symbol id="t" overflow="visible">
   <path d="m7.875-0.46875c-0.40625 0.21094-0.83594 0.36719-1.2812 0.46875-0.4375 0.11328-0.89062 0.17188-1.3594 0.17188-1.4297 0-2.5625-0.39453-3.4062-1.1875-0.83594-0.80078-1.25-1.8906-1.25-3.2656 0-1.3633 0.41406-2.4414 1.25-3.2344 0.84375-0.80078 1.9766-1.2031 3.4062-1.2031 0.46875 0 0.92188 0.054688 1.3594 0.15625 0.44531 0.10547 0.875 0.26562 1.2812 0.48438v1.7656c-0.41797-0.28125-0.82422-0.48438-1.2188-0.60938-0.39844-0.13281-0.8125-0.20312-1.25-0.20312-0.79297 0-1.4141 0.25781-1.8594 0.76562-0.44922 0.5-0.67188 1.1953-0.67188 2.0781 0 0.88672 0.22266 1.5859 0.67188 2.0938 0.44531 0.5 1.0664 0.75 1.8594 0.75 0.4375 0 0.85156-0.0625 1.25-0.1875 0.39453-0.13281 0.80078-0.34375 1.2188-0.625z"/>
  </symbol>
  <symbol id="b" overflow="visible">
   <path d="m5.7656-4.6719c-0.1875-0.082031-0.37109-0.14453-0.54688-0.1875-0.17969-0.039063-0.35547-0.0625-0.53125-0.0625-0.53125 0-0.9375 0.17188-1.2188 0.51562-0.28125 0.33594-0.42188 0.82031-0.42188 1.4531v2.9531h-2.0625v-6.4219h2.0625v1.0469c0.25781-0.41406 0.5625-0.71875 0.90625-0.90625 0.34375-0.19531 0.75391-0.29688 1.2344-0.29688 0.0625 0 0.13281 0.007813 0.21875 0.015625 0.082031 0 0.19531 0.011719 0.34375 0.03125z"/>
  </symbol>
  <symbol id="a" overflow="visible">
   <path d="m7.4062-3.2344v0.59375h-4.8125c0.050781 0.48047 0.22266 0.83984 0.51562 1.0781 0.30078 0.24219 0.72266 0.35938 1.2656 0.35938 0.42578 0 0.86328-0.0625 1.3125-0.1875 0.45703-0.125 0.92578-0.31641 1.4062-0.57812v1.5781c-0.48047 0.1875-0.96484 0.32812-1.4531 0.42188-0.49219 0.09375-0.97656 0.14062-1.4531 0.14062-1.168 0-2.0742-0.29688-2.7188-0.89062-0.64844-0.59375-0.96875-1.4219-0.96875-2.4844 0-1.0508 0.31641-1.875 0.95312-2.4688 0.63281-0.60156 1.5039-0.90625 2.6094-0.90625 1.0078 0 1.8164 0.30859 2.4219 0.92188 0.61328 0.60547 0.92188 1.4141 0.92188 2.4219zm-2.1094-0.67188c0-0.39453-0.11719-0.71094-0.34375-0.95312-0.23047-0.23828-0.52734-0.35938-0.89062-0.35938-0.40625 0-0.73438 0.11719-0.98438 0.34375-0.24219 0.21875-0.39062 0.54297-0.45312 0.96875z"/>
  </symbol>
  <symbol id="k" overflow="visible">
   <path d="m3.8594-2.8906c-0.42969 0-0.75 0.074219-0.96875 0.21875-0.21094 0.14844-0.3125 0.35938-0.3125 0.64062 0 0.26172 0.082031 0.46484 0.25 0.60938 0.17578 0.14844 0.42188 0.21875 0.73438 0.21875 0.38281 0 0.70703-0.13281 0.96875-0.40625 0.26953-0.28125 0.40625-0.62891 0.40625-1.0469v-0.23438zm3.1406-0.78125v3.6719h-2.0625v-0.95312c-0.28125 0.38672-0.59375 0.67188-0.9375 0.85938-0.34375 0.17578-0.76172 0.26562-1.25 0.26562-0.66797 0-1.2109-0.19141-1.625-0.57812-0.41797-0.39453-0.625-0.89844-0.625-1.5156 0-0.75781 0.25781-1.3125 0.78125-1.6562 0.51953-0.35156 1.332-0.53125 2.4375-0.53125h1.2188v-0.17188c0-0.32031-0.13281-0.55469-0.39062-0.70312-0.25-0.15625-0.65234-0.23438-1.2031-0.23438-0.4375 0-0.84375 0.046875-1.2188 0.14062-0.375 0.085937-0.73047 0.21484-1.0625 0.39062v-1.5625c0.44531-0.11328 0.89062-0.19531 1.3281-0.25 0.44531-0.050781 0.89062-0.078125 1.3281-0.078125 1.1641 0 2.0039 0.23047 2.5156 0.6875 0.50781 0.46094 0.76562 1.1992 0.76562 2.2188z"/>
  </symbol>
  <symbol id="c" overflow="visible">
   <path d="m3.2344-8.25v1.8281h2.1094v1.4688h-2.1094v2.7188c0 0.30469 0.054687 0.50781 0.17188 0.60938 0.11328 0.10547 0.34766 0.15625 0.70312 0.15625h1.0625v1.4688h-1.7656c-0.8125 0-1.3906-0.16406-1.7344-0.5-0.33594-0.34375-0.5-0.92188-0.5-1.7344v-2.7188h-1.0156v-1.4688h1.0156v-1.8281z"/>
  </symbol>
  <symbol id="g" overflow="visible">
   <path d="m5.3594-5.4844v-3.4375h2.0625v8.9219h-2.0625v-0.92188c-0.28125 0.375-0.59375 0.65234-0.9375 0.82812-0.34375 0.17578-0.74219 0.26562-1.1875 0.26562-0.79297 0-1.4453-0.3125-1.9531-0.9375-0.5-0.63281-0.75-1.4453-0.75-2.4375 0-0.98828 0.25-1.7969 0.75-2.4219 0.50781-0.63281 1.1602-0.95312 1.9531-0.95312 0.44531 0 0.84375 0.089844 1.1875 0.26562 0.34375 0.17969 0.65625 0.45312 0.9375 0.82812zm-1.3594 4.1562c0.44531 0 0.78516-0.16016 1.0156-0.48438 0.22656-0.32031 0.34375-0.78516 0.34375-1.3906 0-0.61328-0.11719-1.082-0.34375-1.4062-0.23047-0.32031-0.57031-0.48438-1.0156-0.48438-0.4375 0-0.77344 0.16406-1 0.48438-0.23047 0.32422-0.34375 0.79297-0.34375 1.4062 0 0.60547 0.11328 1.0703 0.34375 1.3906 0.22656 0.32422 0.5625 0.48438 1 0.48438z"/>
  </symbol>
  <symbol id="j" overflow="visible">
   <path d="m4.4062-1.3281c0.4375 0 0.76953-0.16016 1-0.48438 0.23828-0.32031 0.35938-0.78516 0.35938-1.3906 0-0.61328-0.12109-1.082-0.35938-1.4062-0.23047-0.32031-0.5625-0.48438-1-0.48438s-0.77734 0.16406-1.0156 0.48438c-0.23047 0.32422-0.34375 0.79297-0.34375 1.4062 0 0.60547 0.11328 1.0703 0.34375 1.3906 0.23828 0.32422 0.57812 0.48438 1.0156 0.48438zm-1.3594-4.1562c0.28125-0.375 0.59375-0.64844 0.9375-0.82812 0.34375-0.17578 0.73828-0.26562 1.1875-0.26562 0.78906 0 1.4414 0.32031 1.9531 0.95312 0.50781 0.625 0.76562 1.4336 0.76562 2.4219 0 0.99219-0.25781 1.8047-0.76562 2.4375-0.51172 0.625-1.1641 0.9375-1.9531 0.9375-0.44922 0-0.84375-0.089844-1.1875-0.26562-0.34375-0.1875-0.65625-0.46094-0.9375-0.82812v0.92188h-2.0625v-8.9219h2.0625z"/>
  </symbol>
  <symbol id="i" overflow="visible">
   <path d="m0.14062-6.4219h2.0625l1.7188 4.3594 1.4688-4.3594h2.0625l-2.7031 7.0312c-0.27344 0.71875-0.58984 1.2188-0.95312 1.5-0.36719 0.28125-0.84375 0.42188-1.4375 0.42188h-1.1875v-1.3438h0.64062c0.35156 0 0.60938-0.058594 0.76562-0.17188 0.15625-0.10547 0.28125-0.30469 0.375-0.59375l0.046875-0.17188z"/>
  </symbol>
  <symbol id="f" overflow="visible">
   <path d="m6.2812-1.5625h-3.4531l-0.54688 1.5625h-2.2188l3.1719-8.5625h2.625l3.1719 8.5625h-2.2188zm-2.9062-1.5938h2.3438l-1.1719-3.4062z"/>
  </symbol>
  <symbol id="s" overflow="visible">
   <path d="m4-5.0938c-0.4375 0-0.77344 0.16406-1 0.48438-0.23047 0.32422-0.34375 0.79297-0.34375 1.4062 0 0.60547 0.11328 1.0703 0.34375 1.3906 0.22656 0.32422 0.5625 0.48438 1 0.48438 0.44531 0 0.78516-0.16016 1.0156-0.48438 0.22656-0.32031 0.34375-0.78516 0.34375-1.3906 0-0.61328-0.11719-1.082-0.34375-1.4062-0.23047-0.32031-0.57031-0.48438-1.0156-0.48438zm1.3594 4.1719c-0.28125 0.375-0.59375 0.65234-0.9375 0.82812-0.34375 0.17578-0.74219 0.26562-1.1875 0.26562-0.79297 0-1.4453-0.3125-1.9531-0.9375-0.5-0.63281-0.75-1.4453-0.75-2.4375 0-0.98828 0.25-1.7969 0.75-2.4219 0.50781-0.625 1.1602-0.9375 1.9531-0.9375 0.44531 0 0.84375 0.089844 1.1875 0.26562 0.34375 0.16797 0.65625 0.44531 0.9375 0.82812v-0.95312h2.0625v8.8594h-2.0625z"/>
  </symbol>
  <symbol id="h" overflow="visible">
   <path d="m0.92188-2.5v-3.9219h2.0625v0.64062c0 0.34375-0.007813 0.78125-0.015625 1.3125v1.0469c0 0.52344 0.007812 0.89844 0.03125 1.125 0.03125 0.21875 0.082031 0.38281 0.15625 0.48438 0.082031 0.13672 0.19141 0.24219 0.32812 0.3125 0.13281 0.074219 0.28906 0.10938 0.46875 0.10938 0.42578 0 0.75781-0.16016 1-0.48438 0.25-0.33203 0.375-0.78906 0.375-1.375v-3.1719h2.0469v6.4219h-2.0469v-0.92188c-0.3125 0.36719-0.64062 0.64062-0.98438 0.82812-0.34375 0.17578-0.72656 0.26562-1.1406 0.26562-0.75 0-1.3203-0.22656-1.7031-0.6875-0.38672-0.45703-0.57812-1.1172-0.57812-1.9844z"/>
  </symbol>
  <symbol id="e" overflow="visible">
   <path d="m7.4531-3.9062v3.9062h-2.0781v-3c0-0.55078-0.011719-0.92969-0.03125-1.1406-0.023438-0.20703-0.0625-0.36328-0.125-0.46875-0.085938-0.13281-0.19531-0.23828-0.32812-0.3125-0.13672-0.070313-0.29297-0.10938-0.46875-0.10938-0.42969 0-0.76562 0.16797-1.0156 0.5-0.24219 0.32422-0.35938 0.78125-0.35938 1.375v3.1562h-2.0625v-6.4219h2.0625v0.9375c0.30078-0.375 0.625-0.64844 0.96875-0.82812 0.35156-0.17578 0.74219-0.26562 1.1719-0.26562 0.73828 0 1.3008 0.23047 1.6875 0.6875 0.38281 0.44922 0.57812 1.1094 0.57812 1.9844z"/>
  </symbol>
  <symbol id="r" overflow="visible">
   <path d="m5.2188-8.9219v1.3438h-1.1406c-0.29297 0-0.49609 0.054687-0.60938 0.15625-0.11719 0.10547-0.17188 0.28906-0.17188 0.54688v0.45312h1.75v1.4688h-1.75v4.9531h-2.0469v-4.9531h-1.0312v-1.4688h1.0312v-0.45312c0-0.69531 0.19141-1.2109 0.57812-1.5469 0.39453-0.33203 1-0.5 1.8125-0.5z"/>
  </symbol>
  <symbol id="d" overflow="visible">
   <path d="m4.0469-5.1094c-0.46094 0-0.80859 0.16797-1.0469 0.5-0.24219 0.32422-0.35938 0.79297-0.35938 1.4062 0 0.61719 0.11719 1.0898 0.35938 1.4219 0.23828 0.32422 0.58594 0.48438 1.0469 0.48438 0.44531 0 0.78516-0.16016 1.0156-0.48438 0.23828-0.33203 0.35938-0.80469 0.35938-1.4219 0-0.61328-0.12109-1.082-0.35938-1.4062-0.23047-0.33203-0.57031-0.5-1.0156-0.5zm0-1.4688c1.1016 0 1.9609 0.29688 2.5781 0.89062 0.625 0.59375 0.9375 1.4219 0.9375 2.4844 0 1.0547-0.3125 1.8828-0.9375 2.4844-0.61719 0.59375-1.4766 0.89062-2.5781 0.89062-1.1172 0-1.9844-0.29688-2.6094-0.89062-0.625-0.60156-0.9375-1.4297-0.9375-2.4844 0-1.0625 0.3125-1.8906 0.9375-2.4844s1.4922-0.89062 2.6094-0.89062z"/>
  </symbol>
  <symbol id="q" overflow="visible">
   <path d="m6.9375-5.3594c0.25781-0.39453 0.56641-0.69531 0.92188-0.90625 0.36328-0.20703 0.75781-0.3125 1.1875-0.3125 0.73828 0 1.3008 0.23047 1.6875 0.6875 0.38281 0.44922 0.57812 1.1094 0.57812 1.9844v3.9062h-2.0625v-3.3438-0.15625c0.007812-0.050781 0.015625-0.12891 0.015625-0.23438 0-0.45703-0.070313-0.78516-0.20312-0.98438-0.13672-0.20703-0.35547-0.3125-0.65625-0.3125-0.38672 0-0.6875 0.16406-0.90625 0.48438-0.21094 0.32422-0.32031 0.78906-0.32812 1.3906v3.1562h-2.0625v-3.3438c0-0.71875-0.0625-1.1758-0.1875-1.375-0.11719-0.20703-0.32812-0.3125-0.64062-0.3125-0.39844 0-0.70312 0.16406-0.92188 0.48438-0.21094 0.32422-0.3125 0.78906-0.3125 1.3906v3.1562h-2.0781v-6.4219h2.0781v0.9375c0.25-0.36328 0.53516-0.63281 0.85938-0.8125 0.33203-0.1875 0.69141-0.28125 1.0781-0.28125 0.44531 0 0.83594 0.10938 1.1719 0.32812 0.34375 0.21094 0.60156 0.50781 0.78125 0.89062z"/>
  </symbol>
  <symbol id="p" overflow="visible">
   <path d="m7.4531-3.9062v3.9062h-2.0781v-2.9844c0-0.5625-0.011719-0.94531-0.03125-1.1562-0.023438-0.20703-0.0625-0.36328-0.125-0.46875-0.085938-0.13281-0.19531-0.23828-0.32812-0.3125-0.13672-0.070313-0.29297-0.10938-0.46875-0.10938-0.42969 0-0.76562 0.16797-1.0156 0.5-0.24219 0.32422-0.35938 0.78125-0.35938 1.375v3.1562h-2.0625v-8.9219h2.0625v3.4375c0.30078-0.375 0.625-0.64844 0.96875-0.82812 0.35156-0.17578 0.74219-0.26562 1.1719-0.26562 0.73828 0 1.3008 0.23047 1.6875 0.6875 0.38281 0.44922 0.57812 1.1094 0.57812 1.9844z"/>
  </symbol>
  <symbol id="o" overflow="visible">
   <path d="m1.0781-8.5625h2.4688l3.1094 5.875v-5.875h2.0938v8.5625h-2.4688l-3.1094-5.875v5.875h-2.0938z"/>
  </symbol>
  <symbol id="n" overflow="visible">
   <path d="m1.0781-8.5625h3.6719c1.082 0 1.9141 0.24609 2.5 0.73438 0.58203 0.48047 0.875 1.168 0.875 2.0625 0 0.89844-0.29297 1.5898-0.875 2.0781-0.58594 0.48047-1.418 0.71875-2.5 0.71875h-1.4688v2.9688h-2.2031zm2.2031 1.5938v2.3906h1.2344c0.42578 0 0.75391-0.10156 0.98438-0.3125 0.23828-0.20703 0.35938-0.5 0.35938-0.875 0-0.38281-0.12109-0.67969-0.35938-0.89062-0.23047-0.20703-0.55859-0.3125-0.98438-0.3125z"/>
  </symbol>
  <symbol id="m" overflow="visible">
   <path d="m0.98438-6.4219h2.0625v6.3125c0 0.85156-0.21094 1.5039-0.625 1.9531-0.41797 0.45703-1.0156 0.6875-1.7969 0.6875h-1.0156v-1.3438h0.35938c0.38281 0 0.64844-0.089844 0.79688-0.26562 0.14453-0.17969 0.21875-0.52344 0.21875-1.0312zm0-2.5h2.0625v1.6719h-2.0625z"/>
  </symbol>
  <symbol id="l" overflow="visible">
   <path d="m6.1719-6.2188v1.6719c-0.27344-0.19531-0.54688-0.33594-0.82812-0.42188-0.28125-0.09375-0.57422-0.14062-0.875-0.14062-0.57422 0-1.0234 0.16797-1.3438 0.5-0.32422 0.33594-0.48438 0.80469-0.48438 1.4062 0 0.59375 0.16016 1.0625 0.48438 1.4062 0.32031 0.33594 0.76953 0.5 1.3438 0.5 0.32031 0 0.625-0.046875 0.90625-0.14062 0.28906-0.10156 0.55469-0.25 0.79688-0.4375v1.6875c-0.3125 0.11719-0.63672 0.20312-0.96875 0.26562-0.33594 0.0625-0.66797 0.09375-1 0.09375-1.1562 0-2.0625-0.29688-2.7188-0.89062-0.65625-0.60156-0.98438-1.4297-0.98438-2.4844 0-1.0625 0.32812-1.8906 0.98438-2.4844s1.5625-0.89062 2.7188-0.89062c0.33203 0 0.66016 0.03125 0.98438 0.09375 0.33203 0.054687 0.66016 0.14062 0.98438 0.26562z"/>
  </symbol>
 </defs>
 <g>
  <path d="m115.1 65.184c0-14.094 9.3945-23.488 23.488-23.488 11.746 0 23.488 9.3945 23.488 23.488v387.58l72.82-72.82c9.3945-9.3945 25.84-9.3945 35.234 0 7.0469 9.3945 7.0469 23.488 0 32.887l-115.1 112.75c-9.3945 9.3945-23.488 11.746-32.887 2.3477l-115.1-115.1c-9.3945-9.3945-9.3945-23.488 0-32.887 9.3945-9.3945 23.488-9.3945 32.887 0l75.168 72.82v-387.58z"/>
  <path d="m350 159.14c-14.094 0-23.488-9.3945-23.488-23.488 0-11.746 9.3945-23.488 23.488-23.488h326.51c14.094 0 23.488 11.746 23.488 23.488 0 14.094-9.3945 23.488-23.488 23.488z"/>
  <path d="m350 260.15c-14.094 0-23.488-9.3945-23.488-23.488 0-11.746 9.3945-23.488 23.488-23.488h256.04c11.746 0 23.488 11.746 23.488 23.488 0 14.094-11.746 23.488-23.488 23.488z"/>
  <path d="m350 361.16c-14.094 0-23.488-9.3945-23.488-23.488 0-11.746 9.3945-23.488 23.488-23.488h183.22c14.094 0 23.488 11.746 23.488 23.488 0 14.094-9.3945 23.488-23.488 23.488z"/>
  <path d="m350 462.16c-14.094 0-23.488-9.3945-23.488-23.488 0-11.746 9.3945-23.488 23.488-23.488h112.75c11.746 0 23.488 11.746 23.488 23.488 0 14.094-11.746 23.488-23.488 23.488z"/>
  <use y="570.21875" xlink:href="#t"/>
  <use x="8.621094" y="570.21875" xlink:href="#b"/>
  <use x="14.410156" y="570.21875" xlink:href="#a"/>
  <use x="22.378906" y="570.21875" xlink:href="#k"/>
  <use x="30.304687" y="570.21875" xlink:href="#c"/>
  <use x="35.917969" y="570.21875" xlink:href="#a"/>
  <use x="43.882812" y="570.21875" xlink:href="#g"/>
  <use x="56.378906" y="570.21875" xlink:href="#j"/>
  <use x="64.785156" y="570.21875" xlink:href="#i"/>
  <use x="76.53125" y="570.21875" xlink:href="#f"/>
  <use x="85.621094" y="570.21875" xlink:href="#s"/>
  <use x="94.027344" y="570.21875" xlink:href="#h"/>
  <use x="102.390625" y="570.21875" xlink:href="#a"/>
  <use x="110.355469" y="570.21875" xlink:href="#e"/>
  <use x="118.71875" y="570.21875" xlink:href="#a"/>
  <use x="130.773438" y="570.21875" xlink:href="#f"/>
  <use x="139.863281" y="570.21875" xlink:href="#b"/>
  <use x="145.652344" y="570.21875" xlink:href="#g"/>
  <use x="154.0625" y="570.21875" xlink:href="#a"/>
  <use x="162.027344" y="570.21875" xlink:href="#a"/>
  <use x="169.992188" y="570.21875" xlink:href="#e"/>
  <use y="581.964844" xlink:href="#r"/>
  <use x="5.109375" y="581.964844" xlink:href="#b"/>
  <use x="10.902344" y="581.964844" xlink:href="#d"/>
  <use x="18.972656" y="581.964844" xlink:href="#q"/>
  <use x="35.296875" y="581.964844" xlink:href="#c"/>
  <use x="40.914062" y="581.964844" xlink:href="#p"/>
  <use x="49.273438" y="581.964844" xlink:href="#a"/>
  <use x="61.328125" y="581.964844" xlink:href="#o"/>
  <use x="71.15625" y="581.964844" xlink:href="#d"/>
  <use x="79.226562" y="581.964844" xlink:href="#h"/>
  <use x="87.589844" y="581.964844" xlink:href="#e"/>
  <use x="100.039062" y="581.964844" xlink:href="#n"/>
  <use x="108.648437" y="581.964844" xlink:href="#b"/>
  <use x="114.4375" y="581.964844" xlink:href="#d"/>
  <use x="122.507812" y="581.964844" xlink:href="#m"/>
  <use x="126.535156" y="581.964844" xlink:href="#a"/>
  <use x="134.5" y="581.964844" xlink:href="#l"/>
  <use x="141.460938" y="581.964844" xlink:href="#c"/>
 </g>
</svg>
